<?xml version="1.0" encoding="utf-8"?>
<!-- Generator: Adobe Illustrator 18.0.0, SVG Export Plug-In . SVG Version: 6.00 Build 0)  -->
<!DOCTYPE svg PUBLIC "-//W3C//DTD SVG 1.1//EN" "http://www.w3.org/Graphics/SVG/1.1/DTD/svg11.dtd">
<svg version="1.1" id="Layer_1" xmlns="http://www.w3.org/2000/svg" xmlns:xlink="http://www.w3.org/1999/xlink" x="0px" y="0px"
	 viewBox="0 0 64 64" enable-background="new 0 0 64 64" xml:space="preserve">
<g>
	<g>
		<g>
			<g>
				<path fill="#9788E2" d="M32,0c17.7,0,32,14.3,32,32S49.7,64,32,64S0,49.7,0,32S14.3,0,32,0z"/>
			</g>
		</g>
	</g>
	<g>
		<g>
			<g>
				<path fill="#A0B5BA" d="M27.5,44v4.2c0,1.2-0.4,2.3-1,3.3l-0.8,1.2c-0.1,0.1,0,0.3,0.2,0.3h13.3c0.2,0,0.3-0.2,0.2-0.3l-0.8-1.2
					c-0.7-1-1-2.1-1-3.3V44H27.5z"/>
			</g>
		</g>
	</g>
	<g>
		<g>
			<g>
				<path fill="#384454" d="M51.5,39h-39V17c0-1.1,0.9-2,2-2h35c1.1,0,2,0.9,2,2V39z"/>
			</g>
		</g>
	</g>
	<g>
		<g>
			<g>
				<path fill="#CCDBE2" d="M49.5,45h-35c-1.1,0-2-0.9-2-2v-4h39v4C51.5,44.1,50.6,45,49.5,45z"/>
			</g>
		</g>
	</g>
	<g>
		<g>
			<g>
				<circle fill="#384454" cx="32.5" cy="42" r="1"/>
			</g>
		</g>
	</g>
	<g>
		<g>
			<g>
				<rect x="14.5" y="17" fill="#4F617F" width="35" height="20"/>
			</g>
		</g>
	</g>
	<g>
		<g>
			<g>
				<g>
					<g>
						<path fill="#6A80A0" d="M35.2,27.3c0-1.3,1-1.9,1.1-1.9c-0.6-0.9-1.5-1-1.8-1c-0.8-0.1-1.5,0.5-1.9,0.5c-0.4,0-1-0.5-1.6-0.4
							c-0.8,0-1.6,0.5-2,1.3c-0.9,1.5-0.2,3.8,0.6,5c0.4,0.6,0.9,1.3,1.5,1.3c0.6,0,0.9-0.4,1.6-0.4c0.7,0,1,0.4,1.6,0.4
							c0.7,0,1.1-0.6,1.5-1.2c0.5-0.7,0.7-1.4,0.7-1.4C36.5,29.3,35.2,28.8,35.2,27.3z"/>
					</g>
				</g>
			</g>
			<g>
				<g>
					<g>
						<path fill="#6A80A0" d="M33.9,23.6c0.3-0.4,0.6-1,0.5-1.6c-0.5,0-1.1,0.3-1.4,0.8c-0.3,0.4-0.6,1-0.5,1.5
							C33,24.3,33.6,24,33.9,23.6z"/>
					</g>
				</g>
			</g>
		</g>
	</g>
</g>
</svg>
